<svg width="392" height="102" viewBox="0 0 392 102" fill="none" xmlns="http://www.w3.org/2000/svg">
<mask id="mask0_5_2" style="mask-type:luminance" maskUnits="userSpaceOnUse" x="8" y="0" width="80" height="77">
<path d="M26.3594 0L87.9053 19.9869L69.5459 76.5212L7.99999 56.5343L26.3594 0Z" fill="white"/>
</mask>
<g mask="url(#mask0_5_2)">
<mask id="mask1_5_2" style="mask-type:luminance" maskUnits="userSpaceOnUse" x="8" y="0" width="80" height="77">
<path d="M7.99992 56.5345L69.5454 76.5213L87.9046 19.9879L26.3591 0.00107574L7.99992 56.5345Z" fill="white"/>
</mask>
<g mask="url(#mask1_5_2)">
<path d="M64.3345 30.853C63.9877 30.7394 63.7438 30.4276 63.7171 30.0636C63.6904 29.6996 63.8861 29.3555 64.2126 29.1924L70.1918 26.2258C70.4794 26.083 70.8214 26.1044 71.0888 26.2821C71.3563 26.4597 71.5087 26.7666 71.4886 27.0871C71.4685 27.4075 71.279 27.6929 70.9914 27.8358L65.0119 30.8033C64.8013 30.908 64.5581 30.9258 64.3345 30.853Z" fill="#525252"/>
</g>
<mask id="mask2_5_2" style="mask-type:luminance" maskUnits="userSpaceOnUse" x="8" y="0" width="80" height="77">
<path d="M7.99992 56.5345L69.5454 76.5213L87.9046 19.9879L26.3591 0.00107574L7.99992 56.5345Z" fill="white"/>
</mask>
<g mask="url(#mask2_5_2)">
<path d="M18.5313 55.8863L18.4702 55.8644C15.6177 54.7035 14.1555 53.397 14.0013 51.8706C13.8664 50.5395 14.8407 49.5118 15.438 49.1138L15.5014 49.0745L27.9144 42.2185C28.3451 42.0087 28.8648 42.1731 29.0964 42.5925C29.3281 43.012 29.1906 43.5394 28.7836 43.7922L16.4167 50.6239C16.3058 50.7077 15.7336 51.1717 15.7908 51.6955C15.8279 52.0361 16.1974 52.9247 18.7493 54.0313L27.4744 49.0771C27.906 48.8319 28.4548 48.983 28.7 49.4147C28.9453 49.8464 28.7941 50.3952 28.3624 50.6404L19.2526 55.8126C19.0332 55.9377 18.7713 55.9644 18.5313 55.8863Z" fill="#525252"/>
</g>
<mask id="mask3_5_2" style="mask-type:luminance" maskUnits="userSpaceOnUse" x="8" y="0" width="80" height="77">
<path d="M7.99992 56.5345L69.5454 76.5213L87.9046 19.9879L26.3591 0.00107574L7.99992 56.5345Z" fill="white"/>
</mask>
<g mask="url(#mask3_5_2)">
<path d="M63.0316 25.2645C62.678 25.1504 62.4311 24.8304 62.4105 24.4594C62.3899 24.0884 62.5999 23.743 62.9388 23.5906L67.5777 21.4936C68.0288 21.296 68.5548 21.498 68.7576 21.9467C68.9605 22.3954 68.7647 22.9238 68.3185 23.1319L63.6796 25.229C63.4755 25.321 63.2445 25.3336 63.0316 25.2645Z" fill="#525252"/>
</g>
<mask id="mask4_5_2" style="mask-type:luminance" maskUnits="userSpaceOnUse" x="8" y="0" width="80" height="77">
<path d="M7.99992 56.5345L69.5454 76.5213L87.9046 19.9879L26.3591 0.00107574L7.99992 56.5345Z" fill="white"/>
</mask>
<g mask="url(#mask4_5_2)">
<path d="M40.183 56.6669C33.0075 54.3367 29.0659 46.6038 31.3961 39.4282L35.3173 27.3537C37.6475 20.1781 45.3804 16.2365 52.556 18.5667C59.7316 20.897 63.6732 28.6299 61.3429 35.8055L57.4217 47.88C55.0915 55.0555 47.3586 58.9972 40.183 56.6669ZM52.0006 20.277C45.768 18.253 39.0506 21.6762 37.0266 27.9088L33.1054 39.9833C31.0814 46.2159 34.5058 52.9326 40.7384 54.9567C46.971 56.9807 53.6884 53.5575 55.7124 47.3249L59.6336 35.2504C61.6576 29.0178 58.2332 22.301 52.0006 20.277Z" fill="#F86401"/>
</g>
<mask id="mask5_5_2" style="mask-type:luminance" maskUnits="userSpaceOnUse" x="8" y="0" width="80" height="77">
<path d="M7.99992 56.5345L69.5454 76.5213L87.9046 19.9879L26.3591 0.00107574L7.99992 56.5345Z" fill="white"/>
</mask>
<g mask="url(#mask5_5_2)">
<path d="M48.0457 32.9644L47.7466 32.8673C47.3267 32.7298 47.0969 32.2788 47.2323 31.8583L49.5359 24.7649C49.6718 24.3463 50.1253 24.1144 50.5449 24.2506L50.8439 24.3477C51.2634 24.4857 51.4931 24.9362 51.3582 25.3568L49.0547 32.4501C48.9168 32.8696 48.4662 33.0993 48.0457 32.9644Z" fill="#F86401"/>
</g>
<mask id="mask6_5_2" style="mask-type:luminance" maskUnits="userSpaceOnUse" x="8" y="0" width="80" height="77">
<path d="M7.99992 56.5345L69.5454 76.5213L87.9046 19.9879L26.3591 0.00107574L7.99992 56.5345Z" fill="white"/>
</mask>
<g mask="url(#mask6_5_2)">
<path d="M47.1154 35.32C46.9584 35.2684 46.8724 35.0998 46.9229 34.9424L50.9953 22.4024C51.0555 22.2579 51.2167 22.1837 51.3657 22.2321C51.5147 22.2805 51.6015 22.4352 51.5653 22.5876L47.493 35.1275C47.4415 35.2846 47.2728 35.3705 47.1154 35.32Z" fill="#F86401"/>
</g>
<mask id="mask7_5_2" style="mask-type:luminance" maskUnits="userSpaceOnUse" x="8" y="0" width="80" height="77">
<path d="M7.99992 56.5345L69.5454 76.5213L87.9046 19.9879L26.3591 0.00107574L7.99992 56.5345Z" fill="white"/>
</mask>
<g mask="url(#mask7_5_2)">
<path d="M41.2999 59.3707L37.6897 58.1982C37.3494 58.0866 37.1634 57.721 37.2735 57.3802C37.3837 57.0409 37.7514 56.8535 38.0906 56.9637L41.7008 58.1361C42.0409 58.2477 42.2273 58.6126 42.1183 58.9535C42.0066 59.2939 41.641 59.4803 41.2999 59.3707Z" fill="#F86401"/>
</g>
<mask id="mask8_5_2" style="mask-type:luminance" maskUnits="userSpaceOnUse" x="8" y="0" width="80" height="77">
<path d="M7.99992 56.5345L69.5454 76.5213L87.9046 19.9879L26.3591 0.00107574L7.99992 56.5345Z" fill="white"/>
</mask>
<g mask="url(#mask8_5_2)">
<path d="M39.9583 60.6675L38.0144 60.0363C37.6736 59.925 37.487 59.559 37.5973 59.2179C37.7074 58.8787 38.0751 58.6912 38.4153 58.8017L40.3592 59.433C40.6992 59.5446 40.8856 59.9095 40.7766 60.2504C40.6649 60.5908 40.2993 60.7772 39.9583 60.6675Z" fill="#F86401"/>
</g>
<mask id="mask9_5_2" style="mask-type:luminance" maskUnits="userSpaceOnUse" x="8" y="0" width="80" height="77">
<path d="M7.99992 56.5345L69.5454 76.5213L87.9046 19.9879L26.3591 0.00107574L7.99992 56.5345Z" fill="white"/>
</mask>
<g mask="url(#mask9_5_2)">
<path d="M55.0472 37.8954L39.1821 32.7432C39.0375 32.683 38.9634 32.5218 39.0118 32.3728C39.0602 32.2238 39.2149 32.137 39.3673 32.1732L55.2324 37.3253C55.3769 37.3856 55.4511 37.5467 55.4027 37.6957C55.3543 37.8447 55.1996 37.9316 55.0472 37.8954Z" fill="#F86401"/>
</g>
<mask id="mask10_5_2" style="mask-type:luminance" maskUnits="userSpaceOnUse" x="8" y="0" width="80" height="77">
<path d="M7.99992 56.5345L69.5454 76.5213L87.9046 19.9879L26.3591 0.00107574L7.99992 56.5345Z" fill="white"/>
</mask>
<g mask="url(#mask10_5_2)">
<path d="M77.7386 34.7146L77.6922 34.6985C77.4662 34.6107 77.2851 34.4357 77.1897 34.2129L76.1361 31.7436C76.0672 31.5824 76.047 31.4045 76.0781 31.232C76.0926 31.1427 76.4137 28.9513 73.953 27.6243L71.5492 28.5556C71.1254 28.7201 70.6456 28.5421 70.4317 28.141L67.2313 22.153C67.1137 21.9334 67.0926 21.6748 67.1731 21.439C67.2536 21.2032 67.4284 21.0115 67.6558 20.9096L70.0587 19.8283C70.1173 19.7049 70.1291 19.5645 70.092 19.433C70.0404 19.2768 69.7453 18.7285 68.1105 18.2399C68.0921 18.235 68.0741 18.2291 68.0563 18.2223C66.663 17.7089 62.6236 16.4075 60.681 16.5452C60.3636 16.5682 59.6192 16.6209 59.335 15.9563C59.1754 15.5798 59.2763 15.1434 59.5849 14.8751C60.5399 14.0054 68.0068 12.5179 73.7978 15.6506C74.1658 15.828 76.1609 16.9284 79.26 21.278L79.2901 21.3219L80.0116 22.4726C80.1362 22.6708 80.1783 22.9099 80.1289 23.1388L80.0006 23.7377C79.9659 23.994 79.6956 26.5665 82.4566 28.1874C82.6089 28.2771 82.7314 28.4096 82.8091 28.5684L84.0364 31.0786C84.1439 31.2963 84.1584 31.5482 84.0768 31.7768C83.9952 32.0054 83.8243 32.1911 83.6033 32.2914L78.3902 34.6772C78.1853 34.7708 77.9528 34.7841 77.7386 34.7146ZM77.8862 31.2633L78.4809 32.658L82.0166 31.0405L81.3097 29.5939C77.6318 27.2683 78.2021 23.5875 78.2288 23.4289L78.2366 23.389L78.2945 23.1185L77.7813 22.3C74.8368 18.1742 73.0345 17.2789 73.0164 17.271L72.9633 17.2434C70.5958 15.957 67.9137 15.5725 65.6583 15.5695C67.187 15.9967 68.4319 16.4454 68.6507 16.5258C70.4297 17.0601 71.4931 17.8642 71.8145 18.9169C72.1728 20.0881 71.459 21.0041 71.3756 21.1051C71.2876 21.2119 71.1762 21.297 71.05 21.3537L69.2704 22.154L71.6415 26.5916L73.6732 25.804C73.9003 25.7154 74.1537 25.7234 74.3747 25.8262C77.4421 27.2418 78.0144 29.8503 77.8862 31.2633Z" fill="#525252"/>
</g>
<mask id="mask11_5_2" style="mask-type:luminance" maskUnits="userSpaceOnUse" x="8" y="0" width="80" height="77">
<path d="M7.99992 56.5345L69.5454 76.5213L87.9046 19.9879L26.3591 0.00107574L7.99992 56.5345Z" fill="white"/>
</mask>
<g mask="url(#mask11_5_2)">
<path d="M59.708 69.2649C59.6154 69.2348 59.5242 69.2042 59.4332 69.1725C59.3506 69.1437 57.3984 68.4457 56.2798 66.1225C55.3267 64.1425 55.2399 61.9251 56.0169 60.1845L53.8795 57.2289C53.6166 56.8267 53.716 56.2888 54.1054 56.0072C54.4948 55.7255 55.0367 55.7995 55.3364 56.1751L58.1401 60.0537L57.8423 60.5604C57.0805 61.8533 57.103 63.6862 57.8999 65.3428C58.4402 66.4656 59.2259 67.0462 59.6763 67.3041C59.1249 65.3532 59.8707 63.1996 61.5935 62.0399C62.6528 61.3204 63.9585 61.0611 65.2124 61.3215C66.0218 61.4845 66.7747 61.8558 67.3968 62.3986C67.3571 62.0149 67.2059 61.3066 66.6546 60.4561C65.4945 58.6681 64.037 57.859 62.3258 58.0513L61.7874 58.112L58.4808 53.2559C58.2137 52.8457 58.3238 52.2972 58.7285 52.0218C59.1333 51.7465 59.684 51.8456 59.9673 52.2448L62.6792 56.2279C64.8329 56.1845 66.7643 57.3221 68.1634 59.478C69.3406 61.2932 69.2121 62.7547 69.1931 62.9148C69.0187 64.4223 68.7703 65.2539 67.9592 65.3304C67.6239 65.361 67.1784 65.2091 66.9556 64.6925L66.7512 64.3771C66.3198 63.7065 65.6349 63.2395 64.8531 63.083C64.0719 62.9214 63.2585 63.0829 62.5981 63.5305C61.3765 64.3644 60.9481 65.9662 61.5904 67.2986L61.8108 67.7524C62.3284 68.341 62.0845 68.8661 61.9906 69.0216C61.5599 69.7403 60.6173 69.5602 59.708 69.2649Z" fill="#525252"/>
</g>
<mask id="mask12_5_2" style="mask-type:luminance" maskUnits="userSpaceOnUse" x="8" y="0" width="80" height="77">
<path d="M7.99992 56.5345L69.5454 76.5213L87.9046 19.9879L26.3591 0.00107574L7.99992 56.5345Z" fill="white"/>
</mask>
<g mask="url(#mask12_5_2)">
<path d="M34.7477 20.9825C34.5699 20.925 34.4147 20.8131 34.304 20.6627L31.7306 17.1884C28.3714 16.6937 26.6138 15.4792 26.5379 15.4267L26.4832 15.3852C24.3144 13.5981 23.8583 9.80105 23.8042 9.27105C23.7034 8.77651 23.5148 7.73172 24.2882 7.29692C24.714 7.05808 25.2544 7.1468 25.6771 7.52169L28.5534 9.78644L28.8491 9.84318L30.8464 7.30671L27.999 4.96872C27.4125 4.50654 27.4779 3.95541 27.5334 3.73995C27.7247 3.0045 28.5934 2.71842 29.2883 2.60832L29.3731 2.59865C33.2163 2.36007 34.7793 3.44206 35.1566 3.76604C37.1522 5.18898 37.3704 8.51932 37.3928 9.12477L37.7144 11.2521L41.1018 16.3172C41.2836 16.5843 41.3081 16.9283 41.1661 17.2184C41.0241 17.5086 40.7373 17.7002 40.4149 17.7205C40.0925 17.7407 39.7841 17.5864 39.6069 17.3163L36.1081 12.0849C36.0345 11.9751 35.986 11.8503 35.9664 11.7196L35.6074 9.34151L35.5979 9.23096C35.573 8.38502 35.2526 6.01223 34.0883 5.21364C34.0283 5.17247 34.0105 5.1636 33.9672 5.11546C33.8488 5.02222 32.8308 4.30112 30.0987 4.36641L32.669 6.47597C33.0467 6.78667 33.1068 7.34232 32.8042 7.72657L29.9225 11.3861C29.7147 11.6509 29.3761 11.7771 29.0456 11.7129L27.9978 11.51C27.8572 11.4831 27.7251 11.4225 27.613 11.3334L25.6984 9.82626C25.923 11.0687 26.4842 13.0279 27.5946 13.9702C27.8004 14.1031 29.4124 15.0884 32.3395 15.4563C32.5832 15.4872 32.8036 15.6162 32.9498 15.8136L35.7487 19.5925C35.9799 19.9071 35.982 20.3349 35.7539 20.6517C35.5257 20.9685 35.1193 21.1021 34.7477 20.9825Z" fill="#525252"/>
</g>
<mask id="mask13_5_2" style="mask-type:luminance" maskUnits="userSpaceOnUse" x="8" y="0" width="80" height="77">
<path d="M7.99992 56.5345L69.5454 76.5213L87.9046 19.9879L26.3591 0.00107574L7.99992 56.5345Z" fill="white"/>
</mask>
<g mask="url(#mask13_5_2)">
<path d="M32.9368 64.6326C31.6518 64.2153 30.6877 63.6305 30.6118 63.5842C27.9278 61.974 25.5194 59.9439 23.4783 57.571C23.2686 57.3278 23.2047 56.9912 23.3105 56.6881C23.4163 56.3849 23.6758 56.1612 23.9913 56.1012C24.3067 56.0413 24.6302 56.1542 24.8399 56.3974C26.7585 58.6269 29.0223 60.5344 31.5449 62.0472C32.3467 62.5369 34.7478 63.6721 36.2908 63.1008C36.94 62.8612 37.3901 62.3275 37.6685 61.4706C37.8218 60.9983 38.329 60.7398 38.8013 60.8931C39.2736 61.0465 39.5321 61.5537 39.3787 62.026C38.925 63.4231 38.0941 64.3528 36.9099 64.7895C35.6156 65.2659 34.1368 65.0223 32.9368 64.6326Z" fill="#F86401"/>
</g>
<mask id="mask14_5_2" style="mask-type:luminance" maskUnits="userSpaceOnUse" x="8" y="0" width="80" height="77">
<path d="M7.99992 56.5345L69.5454 76.5213L87.9046 19.9879L26.3591 0.00107574L7.99992 56.5345Z" fill="white"/>
</mask>
<g mask="url(#mask14_5_2)">
<path d="M17.5515 45.0775C17.2457 44.9787 17.016 44.7241 16.9491 44.4097C15.8768 39.3469 16.1549 34.091 17.7555 29.1696C19.107 25.008 21.2965 21.2911 24.2653 18.1207C24.4848 17.8863 24.8126 17.7869 25.1253 17.8598C25.438 17.9327 25.688 18.1669 25.7812 18.4742C25.8744 18.7814 25.7966 19.1151 25.5771 19.3494C22.798 22.3137 20.7105 25.8571 19.4648 29.7247C17.9613 34.3545 17.6994 39.3028 18.7074 44.0344C18.7745 44.3484 18.6689 44.6744 18.4305 44.8895C18.1921 45.1046 17.857 45.1763 17.5515 45.0775Z" fill="#F86401"/>
</g>
<mask id="mask15_5_2" style="mask-type:luminance" maskUnits="userSpaceOnUse" x="8" y="0" width="80" height="77">
<path d="M7.99992 56.5345L69.5454 76.5213L87.9046 19.9879L26.3591 0.00107574L7.99992 56.5345Z" fill="white"/>
</mask>
<g mask="url(#mask15_5_2)">
<path d="M42.4812 10.6828C42.0756 10.5538 41.8163 10.1579 41.86 9.73466C41.9037 9.31136 42.2385 8.97685 42.6618 8.93349C46.8001 8.48277 50.9869 8.91898 54.9433 10.2131C56.0134 10.5606 57.07 10.9719 58.0863 11.4341C58.5277 11.6457 58.7188 12.1715 58.5162 12.6172C58.3135 13.0628 57.7916 13.2644 57.342 13.0706C56.3797 12.6328 55.3935 12.2497 54.3879 11.9233C50.631 10.7032 46.7508 10.2986 42.8553 10.7206C42.7293 10.7347 42.6018 10.7218 42.4812 10.6828Z" fill="#F86401"/>
</g>
<mask id="mask16_5_2" style="mask-type:luminance" maskUnits="userSpaceOnUse" x="8" y="0" width="80" height="77">
<path d="M7.99992 56.5345L69.5454 76.5213L87.9046 19.9879L26.3591 0.00107574L7.99992 56.5345Z" fill="white"/>
</mask>
<g mask="url(#mask16_5_2)">
<path d="M69.3748 55.0068C69.107 54.9201 68.8952 54.713 68.8026 54.4471C68.71 54.1813 68.7472 53.8874 68.9032 53.6531C70.3038 51.5448 71.4096 49.2549 72.19 46.8471C73.5894 42.5378 73.9153 37.9171 73.1315 33.4846C73.0452 32.9956 73.3717 32.5292 73.8608 32.443C74.3498 32.3567 74.8162 32.6833 74.9024 33.1723C75.734 37.9264 75.3896 42.8117 73.8993 47.4022C73.0631 49.9769 71.886 52.415 70.4012 54.6489C70.1779 54.9846 69.7585 55.1309 69.3748 55.0068Z" fill="#F86401"/>
</g>
</g>
<path d="M4.2498 89.8003L1.67492 96H0.399981L7.92462 78.0009H8.62459L16.1742 96H14.8243L12.2494 89.8003H4.2498ZM8.19961 80.0008C8.18294 80.0174 8.14961 80.1174 8.09961 80.3008C7.86629 81.0174 7.6413 81.6257 7.42464 82.1257L4.67478 88.7753H11.8244L9.07457 82.1507C8.49126 80.8841 8.19961 80.1674 8.19961 80.0008ZM19.5512 79.8508C20.7345 79.7508 21.9511 79.7008 23.201 79.7008C24.451 79.7008 25.5176 80.0008 26.4009 80.6007C27.3008 81.2007 27.7508 82.0757 27.7508 83.2256C27.7508 84.0922 27.5175 84.8922 27.0509 85.6255C26.5842 86.3588 26.0176 86.9171 25.3509 87.3004C26.4342 87.6171 27.3342 88.1837 28.0508 89.0003C28.7674 89.817 29.1258 90.7419 29.1258 91.7752C29.1258 93.2085 28.6674 94.2917 27.7508 95.025C26.8509 95.7583 25.5759 96.125 23.926 96.125C22.2761 96.125 20.8178 96.0667 19.5512 95.95V79.8508ZM21.8261 87.8004L20.7012 87.8254V95C21.4178 95.0667 22.5761 95.1 24.176 95.1C25.2593 95.1 26.1509 94.8001 26.8509 94.2001C27.5675 93.5834 27.9258 92.8168 27.9258 91.9002C27.9258 90.9669 27.5675 90.1586 26.8509 89.4753C26.1509 88.7753 25.2343 88.2837 24.101 88.0004C23.5177 87.8671 22.7594 87.8004 21.8261 87.8004ZM26.6259 83.2006C26.6259 82.384 26.2842 81.759 25.6009 81.3257C24.9176 80.8757 24.101 80.6507 23.151 80.6507C22.2011 80.6507 21.3845 80.6757 20.7012 80.7257V86.8504C22.1511 86.8504 23.3094 86.8921 24.176 86.9754C24.826 86.6254 25.3926 86.1171 25.8759 85.4505C26.3759 84.7672 26.6259 84.0172 26.6259 83.2006ZM37.157 80.4757C36.2571 80.4757 35.5238 80.6924 34.9571 81.1257C34.3905 81.559 34.1072 82.1673 34.1072 82.9506C34.1072 83.8506 34.4821 84.6589 35.2321 85.3755C35.7654 85.8922 36.4487 86.4421 37.282 87.0254C38.132 87.5921 38.7153 88.0004 39.0319 88.2504C39.3486 88.5004 39.7319 88.842 40.1819 89.2753C40.9985 90.0919 41.4068 91.0336 41.4068 92.1002C41.4068 93.4835 40.9402 94.5334 40.0069 95.25C39.0902 95.95 37.7986 96.3 36.1321 96.3C34.4821 96.3 33.0989 95.8667 31.9823 95L32.5822 94.1251C33.7155 94.8917 34.9154 95.275 36.1821 95.275C37.4487 95.275 38.4319 95.0084 39.1319 94.4751C39.8485 93.9418 40.2069 93.1918 40.2069 92.2252C40.2069 91.3919 39.8485 90.6253 39.1319 89.9253C38.6319 89.4253 37.957 88.8837 37.107 88.3004C36.2737 87.7171 35.6904 87.3004 35.3571 87.0504C35.0238 86.7838 34.6321 86.4338 34.1822 86.0005C33.3322 85.1505 32.9072 84.1672 32.9072 83.0506C32.9072 81.934 33.2989 81.059 34.0822 80.4257C34.8821 79.7924 35.9821 79.4758 37.382 79.4758C38.7819 79.4758 40.0402 79.7508 41.1568 80.3008L40.7318 81.2257C39.6986 80.7257 38.5069 80.4757 37.157 80.4757ZM53.19 96.25C50.8735 96.25 48.9319 95.4417 47.3653 93.8251C45.7987 92.2085 45.0154 90.2336 45.0154 87.9004C45.0154 85.5505 45.7987 83.5673 47.3653 81.9507C48.9319 80.3341 50.8735 79.5258 53.19 79.5258C55.5066 79.5258 57.4482 80.3341 59.0148 81.9507C60.5813 83.5673 61.3646 85.5505 61.3646 87.9004C61.3646 90.2336 60.5813 92.2085 59.0148 93.8251C57.4482 95.4417 55.5066 96.25 53.19 96.25ZM53.19 80.5507C51.1901 80.5507 49.5235 81.259 48.1903 82.6756C46.8737 84.0922 46.2154 85.8338 46.2154 87.9004C46.2154 89.9503 46.8737 91.6835 48.1903 93.1001C49.5235 94.5001 51.1901 95.2 53.19 95.2C55.2066 95.2 56.8732 94.5001 58.1898 93.1001C59.5064 91.6835 60.1647 89.9503 60.1647 87.9004C60.1647 85.8338 59.5064 84.0922 58.1898 82.6756C56.8732 81.259 55.2066 80.5507 53.19 80.5507ZM66.3757 96V79.7758H67.5257V94.9501H74.9753V96H66.3757ZM89.1795 94.3251C88.0796 95.6084 86.4047 96.25 84.1548 96.25C81.9049 96.25 80.23 95.6084 79.13 94.3251C78.0301 93.0418 77.4801 91.2669 77.4801 89.0003V79.7758H78.63V89.0003C78.63 93.1501 80.4716 95.225 84.1548 95.225C87.8379 95.225 89.6795 93.1501 89.6795 89.0003V79.7758H90.8294V89.0003C90.8294 91.2669 90.2795 93.0418 89.1795 94.3251ZM99.572 80.8007H94.0723V79.7758H106.197V80.8007H100.697V96H99.572V80.8007ZM109.587 96V79.7758H117.161V80.7757H110.736V86.6754H116.536V87.6504H110.736V94.9501H117.411V96H109.587ZM143.645 95.2C142.396 95.9 140.654 96.25 138.421 96.25C136.204 96.25 134.246 95.45 132.546 93.8501C130.863 92.2502 130.021 90.2669 130.021 87.9004C130.021 85.5172 130.754 83.5256 132.221 81.9257C133.704 80.3258 135.613 79.5258 137.946 79.5258C139.829 79.5258 141.671 79.8174 143.47 80.4007L143.17 81.3507C141.437 80.8174 139.646 80.5507 137.796 80.5507C135.946 80.5507 134.388 81.259 133.121 82.6756C131.871 84.0756 131.246 85.8005 131.246 87.8504C131.246 89.8836 131.971 91.6169 133.421 93.0501C134.888 94.4834 136.579 95.2 138.496 95.2C140.412 95.2 142.004 94.9334 143.27 94.4001L143.645 95.2ZM154.674 96.25C152.358 96.25 150.416 95.4417 148.85 93.8251C147.283 92.2085 146.5 90.2336 146.5 87.9004C146.5 85.5505 147.283 83.5673 148.85 81.9507C150.416 80.3341 152.358 79.5258 154.674 79.5258C156.991 79.5258 158.933 80.3341 160.499 81.9507C162.066 83.5673 162.849 85.5505 162.849 87.9004C162.849 90.2336 162.066 92.2085 160.499 93.8251C158.933 95.4417 156.991 96.25 154.674 96.25ZM154.674 80.5507C152.675 80.5507 151.008 81.259 149.675 82.6756C148.358 84.0922 147.7 85.8338 147.7 87.9004C147.7 89.9503 148.358 91.6835 149.675 93.1001C151.008 94.5001 152.675 95.2 154.674 95.2C156.691 95.2 158.358 94.5001 159.674 93.1001C160.991 91.6835 161.649 89.9503 161.649 87.9004C161.649 85.8338 160.991 84.0922 159.674 82.6756C158.358 81.259 156.691 80.5507 154.674 80.5507ZM173.06 95.15C175.193 95.15 176.901 94.5751 178.185 93.4251C179.485 92.2752 180.135 90.5419 180.135 88.2254C180.135 85.9088 179.401 84.0672 177.935 82.7006C176.485 81.334 174.693 80.6507 172.56 80.6507C171.043 80.6507 169.877 80.6841 169.06 80.7507V94.975C170.06 95.0917 171.393 95.15 173.06 95.15ZM172.56 79.6258C175.06 79.6258 177.143 80.4007 178.81 81.9507C180.493 83.4839 181.334 85.5755 181.334 88.2254C181.334 90.8752 180.56 92.8668 179.01 94.2001C177.476 95.5334 175.493 96.2 173.06 96.2C171.377 96.2 169.643 96.1167 167.86 95.95V79.7758C169.193 79.6758 170.76 79.6258 172.56 79.6258ZM186.341 96V79.7758H187.491V96H186.341ZM193.494 96V79.6758H194.044L204.693 91.9252C205.076 92.3585 205.426 92.7918 205.743 93.2251C206.076 93.6418 206.251 93.8584 206.268 93.8751C206.235 93.4751 206.218 92.6918 206.218 91.5252V79.7758H207.368V96.1H206.818L195.969 83.6506L194.594 81.9757C194.627 82.309 194.644 83.0923 194.644 84.3256V96H193.494ZM220.14 80.5507C218.291 80.5507 216.732 81.259 215.466 82.6756C214.216 84.0756 213.591 85.8005 213.591 87.8504C213.591 89.9003 214.299 91.6419 215.716 93.0751C217.132 94.4917 218.799 95.2 220.715 95.2C222.649 95.2 224.149 94.975 225.215 94.5251V87.8504H226.365V95.05C225.065 95.85 223.224 96.25 220.84 96.25C218.457 96.25 216.449 95.4417 214.816 93.8251C213.182 92.2085 212.366 90.2253 212.366 87.8754C212.366 85.5088 213.099 83.5256 214.566 81.9257C216.049 80.3258 217.957 79.5258 220.29 79.5258C222.174 79.5258 224.015 79.8174 225.815 80.4007L225.515 81.3507C223.782 80.8174 221.99 80.5507 220.14 80.5507ZM241.63 90.3753L239.305 96H238.13L244.93 79.6758H245.605L252.455 96H251.18L248.83 90.3753H241.63ZM245.205 81.5257C244.955 82.2757 244.73 82.9006 244.53 83.4006L242.03 89.4003H248.43L245.955 83.4256C245.572 82.4923 245.322 81.859 245.205 81.5257ZM257.108 80.8007H251.609V79.7758H263.733V80.8007H258.233V96H257.108V80.8007ZM276.131 96V79.7758H277.281V96H276.131ZM286.184 80.8007H280.684V79.7758H292.809V80.8007H287.309V96H286.184V80.8007ZM299.474 80.4757C298.574 80.4757 297.84 80.6924 297.274 81.1257C296.707 81.559 296.424 82.1673 296.424 82.9506C296.424 83.8506 296.799 84.6589 297.549 85.3755C298.082 85.8922 298.765 86.4421 299.599 87.0254C300.449 87.5921 301.032 88.0004 301.348 88.2504C301.665 88.5004 302.048 88.842 302.498 89.2753C303.315 90.0919 303.723 91.0336 303.723 92.1002C303.723 93.4835 303.257 94.5334 302.323 95.25C301.407 95.95 300.115 96.3 298.449 96.3C296.799 96.3 295.415 95.8667 294.299 95L294.899 94.1251C296.032 94.8917 297.232 95.275 298.499 95.275C299.765 95.275 300.748 95.0084 301.448 94.4751C302.165 93.9418 302.523 93.1918 302.523 92.2252C302.523 91.3919 302.165 90.6253 301.448 89.9253C300.948 89.4253 300.274 88.8837 299.424 88.3004C298.59 87.7171 298.007 87.3004 297.674 87.0504C297.34 86.7838 296.949 86.4338 296.499 86.0005C295.649 85.1505 295.224 84.1672 295.224 83.0506C295.224 81.934 295.615 81.059 296.399 80.4257C297.199 79.7924 298.299 79.4758 299.699 79.4758C301.098 79.4758 302.357 79.7508 303.473 80.3008L303.048 81.2257C302.015 80.7257 300.823 80.4757 299.474 80.4757ZM317.34 96V79.7758H325.665V80.7757H318.49V86.6754H325.04V87.6504H318.49V96H317.34ZM330.108 96V79.7758H331.258V96H330.108ZM337.261 96V79.6758H337.811L348.461 91.9252C348.844 92.3585 349.194 92.7918 349.511 93.2251C349.844 93.6418 350.019 93.8584 350.036 93.8751C350.002 93.4751 349.986 92.6918 349.986 91.5252V79.7758H351.136V96.1H350.586L339.736 83.6506L338.361 81.9757C338.394 82.309 338.411 83.0923 338.411 84.3256V96H337.261ZM357.133 96V79.7758H364.708V80.7757H358.283V86.6754H364.083V87.6504H358.283V94.9501H364.958V96H357.133ZM372.834 80.4757C371.934 80.4757 371.201 80.6924 370.634 81.1257C370.068 81.559 369.784 82.1673 369.784 82.9506C369.784 83.8506 370.159 84.6589 370.909 85.3755C371.443 85.8922 372.126 86.4421 372.959 87.0254C373.809 87.5921 374.393 88.0004 374.709 88.2504C375.026 88.5004 375.409 88.842 375.859 89.2753C376.676 90.0919 377.084 91.0336 377.084 92.1002C377.084 93.4835 376.617 94.5334 375.684 95.25C374.768 95.95 373.476 96.3 371.809 96.3C370.159 96.3 368.776 95.8667 367.66 95L368.26 94.1251C369.393 94.8917 370.593 95.275 371.859 95.275C373.126 95.275 374.109 95.0084 374.809 94.4751C375.526 93.9418 375.884 93.1918 375.884 92.2252C375.884 91.3919 375.526 90.6253 374.809 89.9253C374.309 89.4253 373.634 88.8837 372.784 88.3004C371.951 87.7171 371.368 87.3004 371.034 87.0504C370.701 86.7838 370.309 86.4338 369.859 86.0005C369.009 85.1505 368.585 84.1672 368.585 83.0506C368.585 81.934 368.976 81.059 369.759 80.4257C370.559 79.7924 371.659 79.4758 373.059 79.4758C374.459 79.4758 375.717 79.7508 376.834 80.3008L376.409 81.2257C375.376 80.7257 374.184 80.4757 372.834 80.4757ZM384.592 80.8007H379.093V79.7758H391.217V80.8007H385.717V96H384.592V80.8007Z" fill="black"/>
<path d="M123.66 17.9262V19.0977L101.242 53.7635H124.086V56H97.5145V54.7752L119.933 20.1627H98.899V17.9262H123.66ZM147.654 56.5325C142.719 56.5325 138.584 54.8107 135.247 51.3672C131.91 47.9237 130.241 43.717 130.241 38.747C130.241 33.7415 131.91 29.517 135.247 26.0735C138.584 22.63 142.719 20.9082 147.654 20.9082C152.588 20.9082 156.724 22.63 160.061 26.0735C163.398 29.517 165.067 33.7415 165.067 38.747C165.067 43.717 163.398 47.9237 160.061 51.3672C156.724 54.8107 152.588 56.5325 147.654 56.5325ZM147.654 23.0915C143.394 23.0915 139.844 24.6002 137.004 27.6177C134.199 30.6352 132.797 34.345 132.797 38.747C132.797 43.1135 134.199 46.8055 137.004 49.823C139.844 52.805 143.394 54.296 147.654 54.296C151.949 54.296 155.499 52.805 158.304 49.823C161.108 46.8055 162.511 43.1135 162.511 38.747C162.511 34.345 161.108 30.6352 158.304 27.6177C155.499 24.6002 151.949 23.0915 147.654 23.0915ZM175.741 56V21.4407H178.19V53.7635H194.059V56H175.741ZM214.476 56.5325C209.542 56.5325 205.406 54.8107 202.069 51.3672C198.732 47.9237 197.064 43.717 197.064 38.747C197.064 33.7415 198.732 29.517 202.069 26.0735C205.406 22.63 209.542 20.9082 214.476 20.9082C219.411 20.9082 223.547 22.63 226.884 26.0735C230.221 29.517 231.889 33.7415 231.889 38.747C231.889 43.717 230.221 47.9237 226.884 51.3672C223.547 54.8107 219.411 56.5325 214.476 56.5325ZM214.476 23.0915C210.216 23.0915 206.666 24.6002 203.826 27.6177C201.022 30.6352 199.62 34.345 199.62 38.747C199.62 43.1135 201.022 46.8055 203.826 49.823C206.666 52.805 210.216 54.296 214.476 54.296C218.772 54.296 222.322 52.805 225.126 49.823C227.931 46.8055 229.333 43.1135 229.333 38.747C229.333 34.345 227.931 30.6352 225.126 27.6177C222.322 24.6002 218.772 23.0915 214.476 23.0915ZM258.592 54.1895H257.154L247.09 29.7477C246.664 28.7892 246.238 27.671 245.812 26.393C245.812 26.4285 245.776 26.6237 245.705 26.9787C245.67 27.3337 245.616 27.813 245.545 28.4165C245.474 28.9845 245.403 29.4637 245.332 29.8542L241.339 56H238.942L244.587 21.2277H246.025L256.781 46.7345C257.633 48.8645 258.059 49.9827 258.059 50.0892C258.308 49.3437 258.787 48.2432 259.497 46.7877L271.478 21.2277H272.916L278.188 56H275.632L271.851 29.7477C271.602 28.0082 271.478 26.8545 271.478 26.2865L269.934 29.801L258.592 54.1895ZM302.62 56.5325C297.685 56.5325 293.55 54.8107 290.213 51.3672C286.876 47.9237 285.207 43.717 285.207 38.747C285.207 33.7415 286.876 29.517 290.213 26.0735C293.55 22.63 297.685 20.9082 302.62 20.9082C307.554 20.9082 311.69 22.63 315.027 26.0735C318.364 29.517 320.033 33.7415 320.033 38.747C320.033 43.717 318.364 47.9237 315.027 51.3672C311.69 54.8107 307.554 56.5325 302.62 56.5325ZM302.62 23.0915C298.36 23.0915 294.81 24.6002 291.97 27.6177C289.165 30.6352 287.763 34.345 287.763 38.747C287.763 43.1135 289.165 46.8055 291.97 49.823C294.81 52.805 298.36 54.296 302.62 54.296C306.915 54.296 310.465 52.805 313.27 49.823C316.074 46.8055 317.477 43.1135 317.477 38.747C317.477 34.345 316.074 30.6352 313.27 27.6177C310.465 24.6002 306.915 23.0915 302.62 23.0915ZM330.707 56V21.2277H331.878L354.563 47.3202C355.379 48.2432 356.125 49.1662 356.799 50.0892C357.509 50.9767 357.882 51.4382 357.917 51.4737C357.846 50.6217 357.811 48.9532 357.811 46.4682V21.4407H360.26V56.213H359.089L335.978 29.6945L333.05 26.1267C333.121 26.8367 333.156 28.5052 333.156 31.1322V56H330.707Z" fill="#F86401"/>
<path d="M136.958 38.5854L141.26 34.2832C141.486 34.0555 141.613 33.7475 141.613 33.4264C141.613 33.1053 141.486 32.7973 141.26 32.5696C141.147 32.4557 141.013 32.3653 140.864 32.3036C140.716 32.2419 140.557 32.2101 140.397 32.2101C140.237 32.2101 140.078 32.2419 139.93 32.3036C139.782 32.3653 139.647 32.4557 139.534 32.5696L134.381 37.7226C134.267 37.8355 134.177 37.97 134.115 38.118C134.053 38.2661 134.022 38.425 134.022 38.5854C134.022 38.7459 134.053 38.9047 134.115 39.0528C134.177 39.2009 134.267 39.3353 134.381 39.4483L139.534 44.662C139.648 44.7746 139.782 44.8638 139.93 44.9242C140.079 44.9847 140.237 45.0154 140.397 45.0145C140.557 45.0154 140.716 44.9847 140.864 44.9242C141.012 44.8638 141.146 44.7746 141.26 44.662C141.486 44.4343 141.613 44.1263 141.613 43.8052C141.613 43.4841 141.486 43.1761 141.26 42.9484L136.958 38.5854Z" fill="#525252"/>
<path d="M157.996 38.6392L153.694 42.9414C153.468 43.1691 153.341 43.4771 153.341 43.7982C153.341 44.1193 153.468 44.4273 153.694 44.655C153.807 44.7689 153.941 44.8593 154.089 44.921C154.238 44.9827 154.396 45.0145 154.557 45.0145C154.717 45.0145 154.876 44.9827 155.024 44.921C155.172 44.8593 155.307 44.7689 155.42 44.655L160.573 39.5021C160.687 39.3891 160.777 39.2547 160.839 39.1066C160.9 38.9585 160.932 38.7996 160.932 38.6392C160.932 38.4788 160.9 38.3199 160.839 38.1718C160.777 38.0237 160.687 37.8893 160.573 37.7763L155.42 32.5626C155.306 32.45 155.171 32.3609 155.023 32.3004C154.875 32.2399 154.717 32.2092 154.557 32.2102C154.397 32.2092 154.238 32.2399 154.09 32.3004C153.942 32.3609 153.808 32.45 153.694 32.5626C153.468 32.7903 153.341 33.0983 153.341 33.4194C153.341 33.7405 153.468 34.0485 153.694 34.2762L157.996 38.6392Z" fill="#525252"/>
<path d="M144.425 47.8181L150.87 29.9638" stroke="#525252" stroke-width="2.02174" stroke-linecap="round"/>
</svg>
